<?xml version="1.0" encoding="utf-8"?>
<!-- Generator: Adobe Illustrator 26.0.2, SVG Export Plug-In . SVG Version: 6.00 Build 0)  -->
<svg version="1.1" id="Layer_1" xmlns="http://www.w3.org/2000/svg" xmlns:xlink="http://www.w3.org/1999/xlink" x="0px" y="0px"
	 viewBox="0 0 907.2 172.9" style="enable-background:new 0 0 907.2 172.9;" xml:space="preserve">
<style type="text/css">
	.st0{fill:#FFFFFF;}
	.st1{opacity:0.75;fill:#FFFFFF;}
	.st2{opacity:0.5;fill:#FFFFFF;}
</style>
<path class="st0" d="M167.1,43.5h5.7c5,0,8.6-3.9,8.6-9.3V18.5h23.6v25h20v22.1h-20v33.2c0,8.6,5,12.1,12.1,12.1
	c1.8,0,3.6-0.2,6.4-1.1l4.3,22.9c-3.6,1.1-8.9,2.1-17.5,2.1c-17.5,0-30.3-12.1-30.3-29.3v-40h-12.9V43.5z"/>
<path class="st0" d="M226.9,43.5h5.7c5,0,8.6-3.9,8.6-9.3V18.5h23.6v25h20v22.1h-20v33.2c0,8.6,5,12.1,12.1,12.1
	c1.8,0,3.6-0.2,6.4-1.1l4.3,22.9c-3.6,1.1-8.9,2.1-17.5,2.1c-17.5,0-30.3-12.1-30.3-29.3v-40h-12.9V43.5z"/>
<path class="st0" d="M288.1,88.1c0-27.1,18.6-46.8,44.3-46.8c25,0,43.2,19.6,43.2,46.8c0,2.5-0.2,4.3-0.4,5.7H314
	c2,10.7,9.5,17.9,19.1,17.9c7.3,0,14.1-4.3,16.1-10.4l25,7.9c-5.7,15-22.1,25.7-41.4,25.7C306.8,134.9,288.1,115.3,288.1,88.1z
	 M349.5,79.5c-1.8-8.6-8.7-15-17.3-15c-8.6,0-15.2,6.1-17.7,15H349.5z"/>
<path class="st0" d="M383.9,43.5h19.3l4.8,12.9c4.5-9.5,12-15,21.6-15c3.4,0,6.4,0.7,9.3,2.1l-4.3,26.8c-1.6-0.7-4.5-1.1-7.1-1.1
	c-10.9,0-18.6,7.5-18.6,18.6v45h-25V43.5z"/>
<path class="st1" d="M580.8,77v55.7h-14.1V78.5c0-13.6-8.2-22.9-20.4-22.9c-13.9,0-24.5,12.1-24.8,29.3v47.8h-14.3V79.2
	c0-13.2-8.4-23.6-20.5-23.6c-14.6,0-24.8,12.1-25.2,29.3v47.8h-14.3V43.5h12.1l1.2,15.7c4.5-10.5,15.5-17.9,28.9-17.9
	c13.4,0,23.9,8,28.9,20c3.7-11.8,16.6-20,31.4-20C568.2,41.3,580.8,56.3,580.8,77z"/>
<path class="st1" d="M633.3,134.9c-25,0-43.6-19.6-43.6-46.8c0-27.1,18.2-46.8,42.8-46.8c24.3,0,41.2,19.3,41.2,46.1
	c0,2,0,4.3-0.2,6.2h-68.2c1.1,16.1,12.1,27.5,27.1,27.5c12.9,0,22.9-7.7,24.3-19.1l15.4,5.7C668.7,123.5,651.9,134.9,633.3,134.9z
	 M659.2,79.9c-0.7-14.6-12.5-25.2-26.8-25.2c-14.3,0-26.1,10.5-27.1,25.2H659.2z"/>
<path class="st1" d="M754.9,132.7l-1.8-15.9c-6.8,10.7-17.9,17.3-31.1,17.3c-25.7,0-44.3-19.6-44.3-46.8c0-26.4,18.6-46.1,43.6-46.1
	c13,0,23.7,5.9,30.7,15.9V11.4h14.3v103.5l0.7,17.9H754.9z M752.4,87.8c0-18.9-12.9-32.8-30.3-32.8c-17.1,0-29.5,13.9-29.5,32.8
	c0,18.6,12.7,32.5,30.2,32.5C739.9,120.2,752.4,106.3,752.4,87.8z"/>
<path class="st1" d="M800.2,20.6c0,6.2-4.8,11.4-11.1,11.4s-11.1-5.2-11.1-11.4c0-6.2,4.8-11.4,11.1-11.4S800.2,14.4,800.2,20.6z
	 M782,43.5h14.3v89.3H782V43.5z"/>
<path class="st1" d="M867,132.7l-1.2-15.4c-5,10.2-15.4,16.8-28.7,16.8c-17.1,0-30.7-10.7-30.7-27.1c0-12.9,8.9-22.1,22.5-23.6
	l30.7-3.6c3.6-0.4,5.7-2.1,5.7-5v-1.4c0-11.4-8.6-19.3-20.4-19.3c-11.8,0-20.4,8.2-20.7,21.1l-15.7-2.1
	c1.8-18.9,17.1-31.8,36.8-31.8c20,0,34.3,13.2,34.3,31.8v41.8l0.7,17.9H867z M865.2,96.3v-6.1c-0.5,0.5-3,1.1-6.1,1.4l-26.1,2.9
	c-7.9,1.1-12.1,5.4-12.1,11.8c0,7.9,7.5,13.6,17.5,13.6C854.1,119.9,865.2,109.9,865.2,96.3z"/>
<path class="st0" d="M123.1,41.3c-4.5,0-8.9,0.7-13.1,1.9c-4.7,1.4-9.1,3.6-13.1,6.5c-1.5,1.1-2.9,2.2-4.3,3.5
	c-4.3,4-7.9,8.8-10.5,14.2c-0.5,1-0.9,1.9-1.3,2.9c-2.2,5.5-3.4,11.5-3.4,17.8c0,6.3,1.2,12.3,3.4,17.8c0.4,1,0.8,2,1.3,2.9
	c2.6,5.4,6.2,10.2,10.5,14.2c1.4,1.3,2.8,2.4,4.3,3.5c3.9,2.8,8.4,5,13.1,6.5c4.1,1.3,8.5,1.9,13.1,1.9c25.2,0,45.7-20.9,45.7-46.8
	C168.8,62.3,148.3,41.3,123.1,41.3z M123.1,108.8c-3.7,0-7.1-1.1-10-2.9c-1.1-0.7-2.1-1.5-3.1-2.4c-4-3.8-6.5-9.3-6.5-15.4
	c0-6.1,2.5-11.6,6.5-15.4c0.9-0.9,2-1.7,3.1-2.4c2.9-1.9,6.4-2.9,10-2.9c10.8,0,19.5,9.3,19.5,20.7
	C142.6,99.5,133.9,108.8,123.1,108.8z"/>
<path class="st0" d="M51.2,88.1c0,0.7,0,1.3,0.1,2h-0.1C51.2,89.4,51.2,88.8,51.2,88.1z"/>
<path class="st0" d="M51.3,86.1c-0.1,0.6-0.1,1.3-0.1,2C51.2,87.5,51.2,86.8,51.3,86.1L51.3,86.1z"/>
<path class="st0" d="M51.2,88.1c0,0.7,0,1.3,0.1,2h-0.1V88.1z"/>
<path class="st0" d="M51.3,86.1c-0.1,0.6-0.1,1.3-0.1,2L51.3,86.1L51.3,86.1z"/>
<path class="st2" d="M51.3,86.1c0.4-10.8,4.5-20.7,10.9-28.4c5.6-6.8,13.2-11.9,21.7-14.5c2.8-0.9,5.7-1.5,8.8-1.7v-0.2H70.8
	c-3,0-5.8,0.3-8.6,0.8c-20.5,4-36.1,22-37,44c0,0.7,0,1.3,0,2c0,0.7,0,1.3,0,2c0.9,21.9,16.5,39.9,37,44c2.8,0.6,5.7,0.8,8.6,0.8
	h21.8v-0.2c-3-0.3-6-0.9-8.8-1.7c-8.6-2.6-16.1-7.7-21.7-14.5c-6.4-7.7-10.4-17.5-10.9-28.4h0L51.3,86.1L51.3,86.1z"/>
<path class="st0" d="M96.9,41.3c-1.5,0-2.9,0.1-4.3,0.2v-0.2H96.9z"/>
<path class="st1" d="M96.9,126.5c-1.5-1.1-2.9-2.2-4.3-3.5c-4.3-4-7.9-8.8-10.5-14.2c-0.5-1-0.9-1.9-1.3-2.9
	c-2.2-5.5-3.4-11.5-3.4-17.8c0-6.3,1.2-12.3,3.4-17.8c0.4-1,0.8-2,1.3-2.9c2.6-5.4,6.2-10.2,10.5-14.2c1.4-1.3,2.8-2.4,4.3-3.5
	c3.9-2.8,8.4-5,13.1-6.5c4.1-1.3,8.5-1.9,13.1-1.9H96.9c-1.5,0-2.9,0.1-4.3,0.2c-3,0.3-6,0.9-8.8,1.7c-8.6,2.6-16.1,7.7-21.7,14.5
	c-6.4,7.7-10.4,17.5-10.9,28.4h0.1c-0.1,0.6-0.1,1.3-0.1,2c0,0.7,0,1.3,0.1,2h-0.1c0.4,10.8,4.5,20.7,10.9,28.4
	c5.6,6.8,13.2,11.9,21.7,14.5c2.8,0.9,5.7,1.5,8.8,1.7c1.4,0.1,2.9,0.2,4.3,0.2h26.1c-4.5,0-8.9-0.7-13.1-1.9
	C105.3,131.5,100.9,129.3,96.9,126.5z"/>
<path class="st0" d="M96.9,41.3c-1.5,0-2.9,0.1-4.3,0.2v-0.2H96.9z"/>
<path class="st0" d="M51.3,90.1L51.3,90.1l-0.1-2C51.2,88.8,51.3,89.4,51.3,90.1z"/>
<path class="st0" d="M51.3,86.1c-0.1,0.6-0.1,1.3-0.1,2L51.3,86.1L51.3,86.1z"/>
<path class="st0" d="M25.1,88.1c0,0.7,0,1.3,0,2h0V88.1z"/>
<path class="st0" d="M25.1,86.1c0,0.7,0,1.3,0,2L25.1,86.1L25.1,86.1z"/>
</svg>
